
<svg class="animated" id="freepik_stories-financial-data" xmlns="http://www.w3.org/2000/svg" viewBox="0 0 500 500" version="1.1" xmlns:xlink="http://www.w3.org/1999/xlink" xmlns:svgjs="http://svgjs.com/svgjs"><g id="freepik--background-complete--inject-27" class="animable" style="transform-origin: 251.235px 235.005px;"><path d="M48.23,104.85l-4.45,9.79,3,1.35a2.56,2.56,0,0,1,1.49,2.23,14.21,14.21,0,0,0,.16,1.6,2.55,2.55,0,0,1-1,2.47l-2.68,1.92L51,133,53.68,131a2.55,2.55,0,0,1,2.67-.18,13.77,13.77,0,0,0,1.47.66,2.6,2.6,0,0,1,1.64,2.13l.32,3.27,10.71-1-.32-3.29a2.55,2.55,0,0,1,1.2-2.4l.65-.44c.22-.15.43-.31.64-.48a2.54,2.54,0,0,1,2.64-.36l3,1.37,4.45-9.79-3-1.37a2.55,2.55,0,0,1-1.49-2.23,14.24,14.24,0,0,0-.15-1.59,2.54,2.54,0,0,1,1-2.47l2.68-1.92-6.27-8.74-2.68,1.92a2.55,2.55,0,0,1-2.67.17q-.72-.36-1.47-.66a2.57,2.57,0,0,1-1.64-2.12l-.32-3.28-10.72,1,.33,3.29a2.57,2.57,0,0,1-1.2,2.39q-.33.21-.66.45c-.22.15-.43.31-.64.47a2.55,2.55,0,0,1-2.66.37Zm9.91,5.55a8.81,8.81,0,1,1-2,12.28A8.83,8.83,0,0,1,58.14,110.4Z" style="fill: rgb(235, 235, 235); transform-origin: 63.265px 117.54px;" id="el0koh1dmd88fi" class="animable"></path><path d="M439.56,274.78,433,278.54l1.16,2a1.79,1.79,0,0,1-.06,1.88,9.46,9.46,0,0,0-.57,1,1.8,1.8,0,0,1-1.59,1h-2.31v7.53H432a1.8,1.8,0,0,1,1.59,1,8.64,8.64,0,0,0,.57,1,1.79,1.79,0,0,1,.06,1.88l-1.16,2,6.54,3.76,1.16-2a1.79,1.79,0,0,1,1.66-.88l.55,0,.56,0a1.81,1.81,0,0,1,1.66.87l1.16,2,6.54-3.76-1.16-2a1.79,1.79,0,0,1,.06-1.88,8.5,8.5,0,0,0,.57-1,1.79,1.79,0,0,1,1.59-1h2.31v-7.53h-2.31a1.79,1.79,0,0,1-1.59-1,10.67,10.67,0,0,0-.57-1,1.78,1.78,0,0,1-.06-1.87l1.16-2-6.54-3.76-1.16,2a1.79,1.79,0,0,1-1.66.88l-.56,0-.55,0a1.81,1.81,0,0,1-1.67-.88Zm3.37,7.2a6.17,6.17,0,1,1-6.18,6.16A6.17,6.17,0,0,1,442.93,282Z" style="fill: rgb(235, 235, 235); transform-origin: 442.945px 288.185px;" id="elut2w7xfesbq" class="animable"></path><path d="M75.32,156.9l4.58,6,1.84-1.4a1.8,1.8,0,0,1,1.87-.18,10.44,10.44,0,0,0,1,.44,1.77,1.77,0,0,1,1.19,1.45l.3,2.28,7.48-1-.29-2.29a1.78,1.78,0,0,1,.77-1.7,7.65,7.65,0,0,0,.9-.69,1.8,1.8,0,0,1,1.86-.3l2.13.88,2.89-7-2.14-.88A1.8,1.8,0,0,1,98.66,151l-.06-.55a5.25,5.25,0,0,0-.09-.55,1.78,1.78,0,0,1,.66-1.75l1.84-1.41-4.58-6-1.84,1.4a1.8,1.8,0,0,1-1.87.18,10.44,10.44,0,0,0-1-.44,1.78,1.78,0,0,1-1.19-1.45l-.3-2.28-7.48,1,.3,2.29a1.77,1.77,0,0,1-.78,1.7c-.31.21-.6.44-.89.68a1.78,1.78,0,0,1-1.86.31l-2.13-.88-2.9,6.95,2.14.89a1.77,1.77,0,0,1,1.08,1.53l.06.55a4.85,4.85,0,0,0,.09.55,1.79,1.79,0,0,1-.66,1.76ZM82,152.63A6.18,6.18,0,1,1,89,158,6.16,6.16,0,0,1,82,152.63Z" style="fill: rgb(219, 219, 219); transform-origin: 88.165px 151.82px;" id="elguwhgi1p8v9" class="animable"></path><polygon points="81.89 395.69 257.62 395.69 261.28 323.58 78.23 323.58 81.89 395.69" style="fill: rgb(235, 235, 235); transform-origin: 169.755px 359.635px;" id="elah51nmysy7h" class="animable"></polygon><path d="M249.29,356.58H175.82l-1.37-25H250.9Zm-72.63-.88h71.8L250,332.44H175.38Z" style="fill: rgb(219, 219, 219); transform-origin: 212.675px 344.08px;" id="elrqaff7rdopk" class="animable"></path><path d="M247.94,385.38H178.7l-1.12-22.59h71.77Zm-68.4-.88H247.1l1.3-20.83H178.51Z" style="fill: rgb(219, 219, 219); transform-origin: 213.465px 374.085px;" id="el3q8gby4lhnv" class="animable"></path><path d="M219.63,346.78H207.29l-.78-6h13.9Zm-11.56-.88h10.78l.55-4.27H207.52Z" style="fill: rgb(219, 219, 219); transform-origin: 213.46px 343.78px;" id="elybjlv4v3yah" class="animable"></path><path d="M219.63,377.1H207.29l-.78-6h13.9Zm-11.56-.88h10.78l.55-4.27H207.52Z" style="fill: rgb(219, 219, 219); transform-origin: 213.46px 374.1px;" id="el8ogynf0plvt" class="animable"></path><path d="M162.87,356.58H89.4l-1.37-25h76.45Zm-72.63-.88H162l1.5-23.26H89Z" style="fill: rgb(219, 219, 219); transform-origin: 126.255px 344.08px;" id="elpwor6mdxx" class="animable"></path><path d="M161.52,385.38H92.28l-1.12-22.59h71.77Zm-68.39-.88h67.55L162,363.67H92.09Z" style="fill: rgb(219, 219, 219); transform-origin: 127.045px 374.085px;" id="elsx8uoavlne" class="animable"></path><path d="M133.21,346.78H120.87l-.78-6H134Zm-11.56-.88h10.78l.55-4.27H121.1Z" style="fill: rgb(219, 219, 219); transform-origin: 127.045px 343.78px;" id="ela2j4d02rlyo" class="animable"></path><path d="M133.21,377.1H120.87l-.78-6H134Zm-11.56-.88h10.78L133,372H121.1Z" style="fill: rgb(219, 219, 219); transform-origin: 127.045px 374.1px;" id="elejtl2jhuvz5" class="animable"></path><polygon points="97.65 395.68 96.54 403.54 94.32 419.32 89.98 419.32 89.98 395.68 97.65 395.68" style="fill: rgb(235, 235, 235); transform-origin: 93.815px 407.5px;" id="elcuui1xc6kmj" class="animable"></polygon><polygon points="97.65 395.68 96.54 403.54 89.98 403.54 89.98 395.68 97.65 395.68" style="fill: rgb(219, 219, 219); transform-origin: 93.815px 399.61px;" id="elh3a3867ztaw" class="animable"></polygon><polygon points="241.86 395.68 242.97 403.54 245.19 419.32 249.53 419.32 249.53 395.68 241.86 395.68" style="fill: rgb(235, 235, 235); transform-origin: 245.695px 407.5px;" id="el0iybqb9sx7ti" class="animable"></polygon><polygon points="241.86 395.68 242.97 403.54 249.53 403.54 249.53 395.68 241.86 395.68" style="fill: rgb(219, 219, 219); transform-origin: 245.695px 399.61px;" id="elqlibkna8ei" class="animable"></polygon><path d="M435.7,304.22l-13.12.28-6.66.11c-2.23.05-4.47,0-6.7.06h-.44v-.45L408.72,293v-.5h.5l13.24.06c4.42,0,8.83.11,13.24.16H436V293c0,1.9-.09,3.79-.13,5.66Zm0,0-.14-5.65c0-1.86-.11-3.7-.13-5.54l.27.28c-4.41.05-8.82.16-13.24.16l-13.24.06.5-.5-.05,11.19-.45-.44c2.18,0,4.36,0,6.55.05l6.58.12Z" style="fill: rgb(235, 235, 235); transform-origin: 422.36px 298.585px;" id="elqjr51yk47s" class="animable"></path><path d="M420.93,318.33l-13.12.28-6.66.11c-2.23,0-4.47,0-6.7.06H394v-.45L394,307.14v-.5h.5l13.24.07c4.41,0,8.83.11,13.24.16h.28v.27c0,1.9-.08,3.79-.13,5.66Zm0,0-.14-5.65c-.05-1.86-.11-3.7-.13-5.54l.27.28c-4.41.05-8.83.16-13.24.16l-13.24.06.5-.5-.05,11.19-.45-.44c2.18,0,4.36,0,6.55.05l6.58.12Z" style="fill: rgb(235, 235, 235); transform-origin: 407.63px 312.71px;" id="elg006umsoqal" class="animable"></path><path d="M450.47,318.33l-13.12.28-6.66.11c-2.23,0-4.46,0-6.7.06h-.44v-.45l-.06-11.19v-.5h.5l13.24.07c4.42,0,8.83.11,13.24.16h.28v.27c0,1.9-.09,3.79-.13,5.66Zm0,0-.14-5.65c0-1.86-.11-3.7-.13-5.54l.27.28c-4.41.05-8.82.16-13.24.16l-13.24.06.5-.5-.05,11.19-.45-.44c2.19,0,4.36,0,6.55.05l6.58.12Z" style="fill: rgb(235, 235, 235); transform-origin: 437.12px 312.71px;" id="elpuc6lj10g5n" class="animable"></path><path d="M146.87,171.07l-13.12.28-6.67.11c-2.22,0-4.46,0-6.69,0H120v-.45l0-11.19v-.5h.5l13.24.06c4.41,0,8.83.11,13.24.16h.28v.27c0,1.9-.08,3.78-.13,5.65Zm0,0-.14-5.66c0-1.86-.11-3.7-.13-5.53l.27.27c-4.41,0-8.83.16-13.24.16l-13.24.07.5-.5,0,11.19-.45-.45c2.18,0,4.36,0,6.55.06l6.57.11Z" style="fill: rgb(235, 235, 235); transform-origin: 133.63px 165.39px;" id="elsk6oxsnoyqn" class="animable"></path><path d="M132.1,185.18l-13.13.28-6.66.11c-2.22,0-4.46,0-6.69.05h-.45v-.45l0-11.19v-.5h.5l13.24.06c4.41,0,8.83.11,13.24.16h.27V174c0,1.9-.08,3.78-.13,5.65Zm0,0-.14-5.66c-.05-1.86-.12-3.7-.13-5.53l.27.27c-4.41.05-8.83.16-13.24.16l-13.24.07.5-.5-.06,11.19-.44-.45c2.18,0,4.36,0,6.54.06l6.58.11Z" style="fill: rgb(235, 235, 235); transform-origin: 118.795px 179.55px;" id="eludrzxnepbpe" class="animable"></path><path d="M161.64,185.18l-13.12.28-6.66.11c-2.23,0-4.47,0-6.7.05h-.44v-.45L134.66,174v-.5h.5l13.24.06c4.42,0,8.83.11,13.24.16h.28V174c0,1.9-.08,3.78-.13,5.65Zm0,0-.14-5.66c-.05-1.86-.11-3.7-.13-5.53l.27.27c-4.41.05-8.82.16-13.24.16l-13.24.07.5-.5,0,11.19-.45-.45c2.18,0,4.36,0,6.55.06l6.58.11Z" style="fill: rgb(235, 235, 235); transform-origin: 148.29px 179.56px;" id="elhm1wp6cxexs" class="animable"></path><path d="M95.12,318.33,82,318.61l-6.67.11c-2.22,0-4.46,0-6.69.06H68.2v-.45l0-11.19v-.5h.5l13.24.07c4.41,0,8.83.11,13.24.16h.28v.27c0,1.9-.08,3.79-.13,5.66Zm0,0L95,312.68c0-1.86-.11-3.7-.13-5.54l.27.28c-4.41.05-8.83.16-13.24.16l-13.24.06.5-.5,0,11.19-.45-.44c2.18,0,4.36,0,6.55.05l6.57.12Z" style="fill: rgb(235, 235, 235); transform-origin: 81.83px 312.71px;" id="el8kporx2yxfg" class="animable"></path><path d="M281.19,171.06l-13.12.28-6.66.11c-2.23.05-4.47,0-6.7.05h-.44v-.45l-.06-11.19v-.5h.5l13.24.06c4.42,0,8.83.12,13.24.17h.28v.27c0,1.9-.09,3.79-.13,5.65Zm0,0-.14-5.65c0-1.87-.11-3.71-.13-5.54l.27.27c-4.41.05-8.82.16-13.24.17l-13.24.06.5-.5-.05,11.19-.45-.45c2.18,0,4.36,0,6.55.06l6.58.11Z" style="fill: rgb(235, 235, 235); transform-origin: 267.84px 165.43px;" id="eldzl6qivx9h" class="animable"></path><path d="M434.17,62.38l-13.12.28-6.66.11c-2.23,0-4.47,0-6.7.06h-.44v-.45l-.06-11.19v-.5h.5l13.24.06c4.41,0,8.83.12,13.24.17h.28v.27c0,1.9-.08,3.79-.13,5.65Zm0,0L434,56.73c0-1.87-.11-3.71-.13-5.54l.27.27c-4.41,0-8.83.16-13.24.17l-13.24.06.5-.5-.05,11.19-.45-.45c2.18,0,4.36,0,6.55.06l6.58.11Z" style="fill: rgb(235, 235, 235); transform-origin: 420.82px 56.76px;" id="elvwwk4tyeg9" class="animable"></path><path d="M448.94,76.49l-13.12.28-6.66.11c-2.23.05-4.47,0-6.7.06H422v-.45L422,65.3v-.5h.5l13.24.06c4.42,0,8.83.12,13.24.17h.28v.27c0,1.9-.09,3.79-.13,5.65Zm0,0-.14-5.65c0-1.87-.11-3.71-.13-5.54l.27.27c-4.41.05-8.82.16-13.24.17l-13.24.06.5-.5,0,11.19-.45-.45c2.18,0,4.36,0,6.55.06l6.58.11Z" style="fill: rgb(235, 235, 235); transform-origin: 435.63px 70.87px;" id="elp5i31e0oa6h" class="animable"></path><path d="M76,62.39l-13.13.28-6.66.11c-2.23,0-4.46,0-6.69.06h-.45v-.45L49,51.2v-.5h.51l13.24.07c4.41,0,8.82.11,13.24.16h.27v.27c0,1.9-.09,3.79-.13,5.66Zm0,0-.15-5.65c0-1.86-.11-3.71-.13-5.54l.28.27c-4.42.06-8.83.16-13.24.17l-13.24.06.49-.5L50,62.39,49.53,62c2.18,0,4.35,0,6.54,0l6.58.11Z" style="fill: rgb(235, 235, 235); transform-origin: 62.63px 56.77px;" id="elk7896pji02g" class="animable"></path><rect x="391.24" y="93.59" width="48.16" height="58.41" style="fill: rgb(235, 235, 235); transform-origin: 415.32px 122.795px;" id="elmvocwzleo4r" class="animable"></rect><rect x="396.74" y="98.92" width="37.15" height="47.75" style="fill: rgb(255, 255, 255); transform-origin: 415.315px 122.795px;" id="elitjlpufy7t" class="animable"></rect><rect x="396.74" y="98.92" width="1.45" height="47.75" style="fill: rgb(219, 219, 219); transform-origin: 397.465px 122.795px;" id="elzpmw0rexwph" class="animable"></rect><rect x="439.39" y="93.59" width="1.45" height="58.41" style="fill: rgb(219, 219, 219); transform-origin: 440.115px 122.795px;" id="elv4e7n47kqj" class="animable"></rect><rect x="409.19" y="105.51" width="8.76" height="26.1" style="fill: rgb(219, 219, 219); transform-origin: 413.57px 118.56px;" id="elk9ymxzvk59t" class="animable"></rect><rect x="405.37" y="123.28" width="23.36" height="12.79" style="fill: none; stroke: rgb(235, 235, 235); stroke-miterlimit: 10; transform-origin: 417.05px 129.675px;" id="elnttdgzutdkm" class="animable"></rect><rect x="409.09" y="168.39" width="48.16" height="58.41" style="fill: rgb(235, 235, 235); transform-origin: 433.17px 197.595px;" id="el68b53gf145g" class="animable"></rect><rect x="414.59" y="173.72" width="37.15" height="47.75" style="fill: rgb(255, 255, 255); transform-origin: 433.165px 197.595px;" id="elkdn5syi3x2" class="animable"></rect><rect x="414.59" y="173.72" width="1.45" height="47.75" style="fill: rgb(219, 219, 219); transform-origin: 415.315px 197.595px;" id="el89dxsy2wtks" class="animable"></rect><rect x="457.24" y="168.39" width="1.45" height="58.41" style="fill: rgb(219, 219, 219); transform-origin: 457.965px 197.595px;" id="el53ap1i6kmab" class="animable"></rect><rect x="429.57" y="186.06" width="7.5" height="18.98" style="fill: rgb(235, 235, 235); transform-origin: 433.32px 195.55px;" id="el4iag9u3vzx7" class="animable"></rect><rect x="424.81" y="197.6" width="20.16" height="13.08" style="fill: none; stroke: rgb(219, 219, 219); stroke-miterlimit: 10; transform-origin: 434.89px 204.14px;" id="elunvvr5we1fq" class="animable"></rect></g><g id="freepik--Shadow--inject-27" class="animable" style="transform-origin: 353.4px 452.88px;"><ellipse cx="353.4" cy="452.88" rx="112.56" ry="13.11" style="fill: rgb(235, 235, 235); transform-origin: 353.4px 452.88px;" id="elfbwm1yny0fw" class="animable"></ellipse></g><g id="freepik--Board--inject-27" class="animable" style="transform-origin: 250px 187.945px;"><polygon points="97.85 78.79 97.69 77.81 250.82 52.83 250.9 52.84 402.31 77.81 402.14 78.79 250.82 53.84 97.85 78.79" style="fill: rgb(38, 50, 56); transform-origin: 250px 65.81px;" id="elkrande837gl" class="animable"></polygon><path d="M254.26,53.33a3.44,3.44,0,1,1-3.44-3.44A3.45,3.45,0,0,1,254.26,53.33Z" style="fill: rgb(235, 235, 235); transform-origin: 250.82px 53.33px;" id="elpiglst4nb7" class="animable"></path><rect x="96.99" y="89.5" width="305.84" height="215.36" style="fill: rgb(235, 235, 235); transform-origin: 249.91px 197.18px;" id="elxizoneir41b" class="animable"></rect><rect x="89.23" y="76.3" width="321.54" height="13.2" style="fill: rgb(55, 71, 79); transform-origin: 250px 82.9px;" id="eloat14fdhn1d" class="animable"></rect><rect x="224.26" y="120.45" width="41" height="48.58" style="fill: rgb(255, 255, 255); transform-origin: 244.76px 144.74px;" id="elak68imum5xh" class="animable"></rect><path d="M246.24,123.75a1.48,1.48,0,1,1-1.48-1.47A1.47,1.47,0,0,1,246.24,123.75Z" style="fill: rgb(69, 90, 100); transform-origin: 244.76px 123.76px;" id="eld2jcy08luef" class="animable"></path><path d="M232.06,130.18c4.15-.32,8.29-.34,12.44-.39s8.29.07,12.44.39c-4.15.32-8.3.34-12.44.38S236.21,130.5,232.06,130.18Z" style="fill: rgb(235, 235, 235); transform-origin: 244.5px 130.174px;" id="el828p39s5d2c" class="animable"></path><path d="M232.06,134a54.84,54.84,0,0,1,6.76-.39,51,51,0,0,1,6.76.39,60.32,60.32,0,0,1-13.52,0Z" style="fill: rgb(235, 235, 235); transform-origin: 238.82px 133.994px;" id="el28zf252kfty" class="animable"></path><path d="M232.06,137.86a86.12,86.12,0,0,1,8.64-.39,83.25,83.25,0,0,1,8.64.39,98.41,98.41,0,0,1-17.28,0Z" style="fill: rgb(235, 235, 235); transform-origin: 240.7px 137.854px;" id="el78whdei55z4" class="animable"></path><path d="M232.06,141.69c3.61-.3,7.21-.37,10.81-.38s7.21.08,10.81.38c-3.6.31-7.21.38-10.81.39S235.67,142,232.06,141.69Z" style="fill: rgb(235, 235, 235); transform-origin: 242.87px 141.695px;" id="ell7e2eip4xkc" class="animable"></path><path d="M232.06,145.53c3.13-.3,6.26-.37,9.39-.38s6.26.08,9.39.38c-3.13.31-6.26.38-9.39.39S235.19,145.83,232.06,145.53Z" style="fill: rgb(235, 235, 235); transform-origin: 241.45px 145.535px;" id="el3efqin395nd" class="animable"></path><path d="M232.06,149.37c4-.32,8-.34,12-.38s8,.06,12,.38c-4,.32-8,.34-12,.39S236.07,149.69,232.06,149.37Z" style="fill: rgb(235, 235, 235); transform-origin: 244.06px 149.376px;" id="elx80fbkw2yqs" class="animable"></path><path d="M232.06,153.21a79.53,79.53,0,0,1,15.53,0,69.65,69.65,0,0,1-7.76.39A72.2,72.2,0,0,1,232.06,153.21Z" style="fill: rgb(235, 235, 235); transform-origin: 239.825px 153.216px;" id="elr3xr73e3ec" class="animable"></path><path d="M232.06,157.05c4.15-.32,8.29-.34,12.44-.38s8.29.06,12.44.38c-4.15.32-8.3.34-12.44.39S236.21,157.37,232.06,157.05Z" style="fill: rgb(235, 235, 235); transform-origin: 244.5px 157.056px;" id="elk2xknokfrlk" class="animable"></path><path d="M232.06,160.89c4.15-.32,8.29-.34,12.44-.38s8.29.06,12.44.38c-4.15.32-8.3.34-12.44.39S236.21,161.21,232.06,160.89Z" style="fill: rgb(235, 235, 235); transform-origin: 244.5px 160.896px;" id="elxuhp93sx9m" class="animable"></path><rect x="246.79" y="166.69" width="23.17" height="23.17" style="fill: rgb(255, 191, 39); transform-origin: 258.375px 178.275px;" id="elvxewgcdscdj" class="animable"></rect><path d="M259.76,169a1.39,1.39,0,1,1-1.39-1.39A1.38,1.38,0,0,1,259.76,169Z" style="fill: rgb(69, 90, 100); transform-origin: 258.37px 169px;" id="el4dzq5gpvt4l" class="animable"></path><rect x="96.99" y="89.5" width="305.84" height="13.7" style="fill: rgb(219, 219, 219); transform-origin: 249.91px 96.35px;" id="eldg0l87x936s" class="animable"></rect><polygon points="275.5 116.29 327.75 116.18 380 116.29 327.75 116.4 275.5 116.29" style="fill: rgb(199, 199, 199); transform-origin: 327.75px 116.29px;" id="elvwj15we5ebg" class="animable"></polygon><polygon points="275.5 120.55 327.75 120.44 380 120.55 327.75 120.67 275.5 120.55" style="fill: rgb(199, 199, 199); transform-origin: 327.75px 120.555px;" id="el4pjdjgzl694" class="animable"></polygon><polygon points="275.5 124.81 327.75 124.7 380 124.81 327.75 124.93 275.5 124.81" style="fill: rgb(199, 199, 199); transform-origin: 327.75px 124.815px;" id="elck9xtqc84vk" class="animable"></polygon><polygon points="275.5 129.08 327.75 128.96 380 129.08 327.75 129.19 275.5 129.08" style="fill: rgb(199, 199, 199); transform-origin: 327.75px 129.075px;" id="elcbusfl5g5s" class="animable"></polygon><polygon points="275.5 133.34 327.75 133.22 380 133.34 327.75 133.45 275.5 133.34" style="fill: rgb(199, 199, 199); transform-origin: 327.75px 133.335px;" id="elf8ho7zg8ne7" class="animable"></polygon><polygon points="275.5 137.6 327.75 137.49 380 137.6 327.75 137.71 275.5 137.6" style="fill: rgb(199, 199, 199); transform-origin: 327.75px 137.6px;" id="el5fg3pp6rvtt" class="animable"></polygon><polygon points="275.5 141.86 327.75 141.75 380 141.86 327.75 141.97 275.5 141.86" style="fill: rgb(199, 199, 199); transform-origin: 327.75px 141.86px;" id="elfxxlzc85ste" class="animable"></polygon><polygon points="275.5 146.12 327.75 146.01 380 146.12 327.75 146.23 275.5 146.12" style="fill: rgb(199, 199, 199); transform-origin: 327.75px 146.12px;" id="elbfhlw20ewlp" class="animable"></polygon><polygon points="275.5 150.38 327.75 150.27 380 150.38 327.75 150.5 275.5 150.38" style="fill: rgb(199, 199, 199); transform-origin: 327.75px 150.385px;" id="elumkan6l84r" class="animable"></polygon><polygon points="275.5 154.64 327.75 154.53 380 154.64 327.75 154.76 275.5 154.64" style="fill: rgb(199, 199, 199); transform-origin: 327.75px 154.645px;" id="el8sbdie96kqo" class="animable"></polygon><polygon points="275.5 158.91 327.75 158.79 380 158.91 327.75 159.02 275.5 158.91" style="fill: rgb(199, 199, 199); transform-origin: 327.75px 158.905px;" id="el4vcrvi5a0i4" class="animable"></polygon><polygon points="275.5 163.17 327.75 163.05 380 163.17 327.75 163.28 275.5 163.17" style="fill: rgb(199, 199, 199); transform-origin: 327.75px 163.165px;" id="el3qqs5whunwg" class="animable"></polygon><polygon points="275.5 167.43 327.75 167.31 380 167.43 327.75 167.54 275.5 167.43" style="fill: rgb(199, 199, 199); transform-origin: 327.75px 167.425px;" id="elqwwdrupatyn" class="animable"></polygon><polygon points="275.5 171.69 327.75 171.58 380 171.69 327.75 171.8 275.5 171.69" style="fill: rgb(199, 199, 199); transform-origin: 327.75px 171.69px;" id="elojbhra351vm" class="animable"></polygon><polygon points="275.5 175.95 327.75 175.84 380 175.95 327.75 176.06 275.5 175.95" style="fill: rgb(199, 199, 199); transform-origin: 327.75px 175.95px;" id="elelemt9ytm8q" class="animable"></polygon><rect x="286.55" y="146.12" width="7.92" height="34.8" style="fill: rgb(255, 191, 39); transform-origin: 290.51px 163.52px;" id="eloetw37z266" class="animable"></rect><rect x="301.25" y="131.4" width="7.92" height="49.52" style="fill: rgb(255, 255, 255); transform-origin: 305.21px 156.16px;" id="el9um7v3armd9" class="animable"></rect><rect x="315.95" y="124.72" width="7.92" height="56.2" style="fill: rgb(255, 191, 39); transform-origin: 319.91px 152.82px;" id="elzs9s4c3vq38" class="animable"></rect><rect x="330.65" y="133.43" width="7.92" height="47.48" style="fill: rgb(255, 255, 255); transform-origin: 334.61px 157.17px;" id="elqfx695f8x5" class="animable"></rect><rect x="345.35" y="136.03" width="7.92" height="44.89" style="fill: rgb(255, 191, 39); transform-origin: 349.31px 158.475px;" id="el14p3jo51mwti" class="animable"></rect><rect x="360.05" y="161.46" width="7.92" height="19.46" style="fill: rgb(255, 255, 255); transform-origin: 364.01px 171.19px;" id="elx9ln1bm3x6" class="animable"></rect><path d="M278.34,113.3l.17,16.91.12,16.9q.12,16.9.12,33.81l-.41-.42,25.41,0,25.42.05,25.41.14,25.42.25-25.42.25-25.41.13-25.42,0H277.92v-.42q0-16.9.12-33.81l.12-16.9Z" style="fill: rgb(199, 199, 199); transform-origin: 328.96px 147.31px;" id="eliu5jjwqk4ba" class="animable"></path><rect x="286.55" y="184.49" width="7.92" height="0.72" style="fill: rgb(199, 199, 199); transform-origin: 290.51px 184.85px;" id="elgo6epzypddv" class="animable"></rect><rect x="301.25" y="184.49" width="7.92" height="0.72" style="fill: rgb(199, 199, 199); transform-origin: 305.21px 184.85px;" id="el44a9c6nfc2h" class="animable"></rect><rect x="315.95" y="184.49" width="7.92" height="0.72" style="fill: rgb(199, 199, 199); transform-origin: 319.91px 184.85px;" id="elz0l2cipk3v" class="animable"></rect><rect x="330.65" y="184.49" width="7.92" height="0.72" style="fill: rgb(199, 199, 199); transform-origin: 334.61px 184.85px;" id="elbezdab9hjm" class="animable"></rect><rect x="345.35" y="184.49" width="7.92" height="0.72" style="fill: rgb(199, 199, 199); transform-origin: 349.31px 184.85px;" id="el2oxh8bwedl3" class="animable"></rect><rect x="360.05" y="184.49" width="7.92" height="0.72" style="fill: rgb(199, 199, 199); transform-origin: 364.01px 184.85px;" id="elkltbozuuyjs" class="animable"></rect><rect x="291.71" y="195.39" width="27.73" height="2.38" style="fill: rgb(199, 199, 199); transform-origin: 305.575px 196.58px;" id="elvkwpbs6z73b" class="animable"></rect><rect x="291.71" y="200.36" width="37.46" height="2.38" style="fill: rgb(199, 199, 199); transform-origin: 310.44px 201.55px;" id="eli950y7dod9c" class="animable"></rect><rect x="291.71" y="205.34" width="19.88" height="2.38" style="fill: rgb(199, 199, 199); transform-origin: 301.65px 206.53px;" id="elrs4p1pzkxhj" class="animable"></rect><rect x="279.74" y="195.39" width="5.78" height="5.78" style="fill: rgb(255, 191, 39); transform-origin: 282.63px 198.28px;" id="elo6vwdozz9ml" class="animable"></rect><rect x="291.71" y="214.64" width="32.96" height="2.38" style="fill: rgb(199, 199, 199); transform-origin: 308.19px 215.83px;" id="el9za9ewtf219" class="animable"></rect><rect x="291.71" y="219.62" width="26.07" height="2.38" style="fill: rgb(199, 199, 199); transform-origin: 304.745px 220.81px;" id="eljlihque7gvb" class="animable"></rect><rect x="291.71" y="224.59" width="37.46" height="2.38" style="fill: rgb(199, 199, 199); transform-origin: 310.44px 225.78px;" id="eluwdclnawseo" class="animable"></rect><rect x="279.74" y="214.64" width="5.78" height="5.78" style="fill: rgb(255, 255, 255); transform-origin: 282.63px 217.53px;" id="ela471z1tf4uf" class="animable"></rect><rect x="265.17" y="269.97" width="27.73" height="2.38" style="fill: rgb(199, 199, 199); transform-origin: 279.035px 271.16px;" id="el6t8um846sx8" class="animable"></rect><rect x="265.17" y="274.94" width="37.46" height="2.38" style="fill: rgb(199, 199, 199); transform-origin: 283.9px 276.13px;" id="elkjp4m7lalvj" class="animable"></rect><rect x="265.17" y="279.92" width="19.88" height="2.38" style="fill: rgb(199, 199, 199); transform-origin: 275.11px 281.11px;" id="elute1pzngtz9" class="animable"></rect><rect x="253.2" y="269.97" width="5.78" height="5.78" style="fill: rgb(69, 90, 100); transform-origin: 256.09px 272.86px;" id="el3dchnetuhbs" class="animable"></rect><rect x="332.61" y="269.97" width="27.73" height="2.38" style="fill: rgb(199, 199, 199); transform-origin: 346.475px 271.16px;" id="el8jdui0wg6gd" class="animable"></rect><rect x="332.61" y="274.94" width="37.46" height="2.38" style="fill: rgb(199, 199, 199); transform-origin: 351.34px 276.13px;" id="el68o60i72lvk" class="animable"></rect><rect x="332.61" y="279.92" width="19.88" height="2.38" style="fill: rgb(199, 199, 199); transform-origin: 342.55px 281.11px;" id="el2uo2odvdrda" class="animable"></rect><rect x="320.64" y="269.97" width="5.78" height="5.78" style="fill: rgb(255, 191, 39); transform-origin: 323.53px 272.86px;" id="elald5jjhawb" class="animable"></rect><rect x="93.33" y="304.86" width="313.35" height="3.29" style="fill: rgb(55, 71, 79); transform-origin: 250.005px 306.505px;" id="el9ti75ed48td" class="animable"></rect><rect x="249.13" y="308.15" width="1.74" height="11.4" style="fill: rgb(55, 71, 79); transform-origin: 250px 313.85px;" id="eluio9qc68zj" class="animable"></rect><path d="M249.91,326A4.13,4.13,0,1,1,254,321.9,4.13,4.13,0,0,1,249.91,326Zm0-6.25A2.13,2.13,0,1,0,252,321.9,2.12,2.12,0,0,0,249.91,319.78Z" style="fill: rgb(55, 71, 79); transform-origin: 249.87px 321.87px;" id="el2vvqr4fis8u" class="animable"></path><path d="M173.22,238.27a27.12,27.12,0,0,1-16.51,25l-10.59-25Z" style="fill: rgb(199, 199, 199); transform-origin: 159.67px 250.77px;" id="eli0nstrumb1o" class="animable"></path><path d="M142.65,236.41l10.59,25s0,0-.05,0c-.83.33-1.66.65-2.49.91a27.52,27.52,0,0,1-8,1.22,27.81,27.81,0,0,1-8.05-1.22,27.1,27.1,0,0,1,0-51.74,27.17,27.17,0,0,1,16.1,0,27.06,27.06,0,0,1,17.83,17.81,27.36,27.36,0,0,1,1.22,8Z" style="fill: rgb(219, 219, 219); transform-origin: 142.711px 236.45px;" id="eln38jhbg2org" class="animable"></path><path d="M142.65,236.41l10.59,25s0,0-.05,0c-.83.33-1.66.65-2.49.91a27.52,27.52,0,0,1-8,1.22,27.81,27.81,0,0,1-8.05-1.22,27.11,27.11,0,1,1,35.15-25.89Z" style="fill: rgb(255, 191, 39); transform-origin: 142.69px 236.43px;" id="elc6we8pli9c" class="animable"></path><path d="M142.66,236.42,125,257a27.09,27.09,0,1,1,44.74-20.54Z" style="fill: rgb(69, 90, 100); transform-origin: 142.65px 233.179px;" id="el59j3t78rrpo" class="animable"></path><polygon points="187.23 272.31 166.77 272.31 141.42 246.97 141.79 246.6 166.98 271.79 187.23 271.79 187.23 272.31" style="fill: rgb(38, 50, 56); transform-origin: 164.325px 259.455px;" id="elw9xcqkwl7lc" class="animable"></polygon><rect x="140.18" y="245.36" width="2.85" height="2.85" style="fill: rgb(38, 50, 56); transform-origin: 141.605px 246.785px;" id="elogdxkl77pg" class="animable"></rect><polygon points="187.23 252.71 164.17 252.71 153.22 241.76 153.59 241.39 164.39 252.18 187.23 252.18 187.23 252.71" style="fill: rgb(38, 50, 56); transform-origin: 170.225px 247.05px;" id="elu47xcxdumnq" class="animable"></polygon><rect x="151.98" y="240.15" width="2.85" height="2.85" style="fill: rgb(38, 50, 56); transform-origin: 153.405px 241.575px;" id="elfdhh9h3co9" class="animable"></rect><rect x="152.36" y="233.3" width="34.87" height="0.52" style="fill: rgb(38, 50, 56); transform-origin: 169.795px 233.56px;" id="elm9yjh4s018o" class="animable"></rect><rect x="150.56" y="232.14" width="2.85" height="2.85" style="fill: rgb(38, 50, 56); transform-origin: 151.985px 233.565px;" id="el4z2ewrmmsn4" class="animable"></rect><rect x="195.17" y="230.7" width="25.34" height="2.36" style="fill: rgb(199, 199, 199); transform-origin: 207.84px 231.88px;" id="elvej3t07s9o" class="animable"></rect><rect x="195.17" y="235.63" width="32.87" height="2.36" style="fill: rgb(199, 199, 199); transform-origin: 211.605px 236.81px;" id="el8r10fqp5g2" class="animable"></rect><rect x="195.17" y="240.55" width="17.57" height="2.36" style="fill: rgb(199, 199, 199); transform-origin: 203.955px 241.73px;" id="el43nru406tao" class="animable"></rect><rect x="184.37" y="230.7" width="5.72" height="5.72" style="fill: rgb(69, 90, 100); transform-origin: 187.23px 233.56px;" id="el6r7ab6rqetn" class="animable"></rect><rect x="195.17" y="249.75" width="28.42" height="2.36" style="fill: rgb(199, 199, 199); transform-origin: 209.38px 250.93px;" id="elzfvky6h5i4d" class="animable"></rect><rect x="195.17" y="254.67" width="23.7" height="2.36" style="fill: rgb(199, 199, 199); transform-origin: 207.02px 255.85px;" id="elv9i0e1kexqp" class="animable"></rect><rect x="195.17" y="259.59" width="32.87" height="2.36" style="fill: rgb(199, 199, 199); transform-origin: 211.605px 260.77px;" id="elq24g7b7suxb" class="animable"></rect><rect x="184.37" y="249.75" width="5.72" height="5.72" style="fill: rgb(199, 199, 199); transform-origin: 187.23px 252.61px;" id="eldxclu9xa3w6" class="animable"></rect><rect x="195.17" y="268.79" width="28.42" height="2.36" style="fill: rgb(199, 199, 199); transform-origin: 209.38px 269.97px;" id="el9beaz8ab2o" class="animable"></rect><rect x="195.17" y="273.71" width="23.7" height="2.36" style="fill: rgb(199, 199, 199); transform-origin: 207.02px 274.89px;" id="elrehs5wkk0x" class="animable"></rect><rect x="195.17" y="278.63" width="32.87" height="2.36" style="fill: rgb(199, 199, 199); transform-origin: 211.605px 279.81px;" id="ells1ja06z3zm" class="animable"></rect><rect x="184.37" y="268.79" width="5.72" height="5.72" style="fill: rgb(255, 191, 39); transform-origin: 187.23px 271.65px;" id="el2p3zt3xapgo" class="animable"></rect><polygon points="115.58 117.07 173.8 116.93 212.74 117.07 173.8 117.21 115.58 117.07" style="fill: rgb(199, 199, 199); transform-origin: 164.16px 117.07px;" id="elo6jlixq7yt" class="animable"></polygon><polygon points="115.58 122.44 173.8 122.3 212.74 122.44 173.8 122.58 115.58 122.44" style="fill: rgb(199, 199, 199); transform-origin: 164.16px 122.44px;" id="elcgcv5gwd8e" class="animable"></polygon><polygon points="115.58 127.81 173.8 127.66 212.74 127.81 173.8 127.95 115.58 127.81" style="fill: rgb(199, 199, 199); transform-origin: 164.16px 127.805px;" id="ell584s8usy5m" class="animable"></polygon><polygon points="115.58 133.17 173.8 133.03 212.74 133.17 173.8 133.31 115.58 133.17" style="fill: rgb(199, 199, 199); transform-origin: 164.16px 133.17px;" id="elk6cq6l2t27" class="animable"></polygon><polygon points="115.58 138.54 173.8 138.4 212.74 138.54 173.8 138.68 115.58 138.54" style="fill: rgb(199, 199, 199); transform-origin: 164.16px 138.54px;" id="elm99mqopry7n" class="animable"></polygon><polygon points="115.58 143.91 173.8 143.77 212.74 143.91 173.8 144.05 115.58 143.91" style="fill: rgb(199, 199, 199); transform-origin: 164.16px 143.91px;" id="el5cflj0qjw1d" class="animable"></polygon><polygon points="115.58 149.28 173.8 149.14 212.74 149.28 173.8 149.42 115.58 149.28" style="fill: rgb(199, 199, 199); transform-origin: 164.16px 149.28px;" id="el0vtkv2kjers" class="animable"></polygon><polygon points="115.58 154.65 173.8 154.5 212.74 154.65 173.8 154.79 115.58 154.65" style="fill: rgb(199, 199, 199); transform-origin: 164.16px 154.645px;" id="elpzv4ar9s1i" class="animable"></polygon><polygon points="115.58 160.01 173.8 159.87 212.74 160.01 173.8 160.16 115.58 160.01" style="fill: rgb(199, 199, 199); transform-origin: 164.16px 160.015px;" id="elq5dcz8hutqc" class="animable"></polygon><polygon points="115.58 165.38 173.8 165.24 212.74 165.38 173.8 165.53 115.58 165.38" style="fill: rgb(199, 199, 199); transform-origin: 164.16px 165.385px;" id="elqkrphjqrrh" class="animable"></polygon><polygon points="115.58 170.75 173.8 170.61 212.74 170.75 173.8 170.89 115.58 170.75" style="fill: rgb(199, 199, 199); transform-origin: 164.16px 170.75px;" id="eluz40rd7erpb" class="animable"></polygon><polygon points="115.58 176.12 173.8 175.98 212.74 176.12 173.8 176.26 115.58 176.12" style="fill: rgb(199, 199, 199); transform-origin: 164.16px 176.12px;" id="elt4icknf7mc" class="animable"></polygon><polygon points="115.58 181.49 173.8 181.35 212.74 181.49 173.8 181.63 115.58 181.49" style="fill: rgb(199, 199, 199); transform-origin: 164.16px 181.49px;" id="elflqu0mi9qls" class="animable"></polygon><polygon points="115.58 186.86 173.8 186.72 212.74 186.86 173.8 187 115.58 186.86" style="fill: rgb(199, 199, 199); transform-origin: 164.16px 186.86px;" id="ell650hf39atq" class="animable"></polygon><polygon points="115.58 192.22 173.8 192.08 212.74 192.22 173.8 192.37 115.58 192.22" style="fill: rgb(199, 199, 199); transform-origin: 164.16px 192.225px;" id="elpqr9j2cnja" class="animable"></polygon><polygon points="208.02 114.02 208.18 160.95 208.02 201.57 207.87 160.95 208.02 114.02" style="fill: rgb(199, 199, 199); transform-origin: 208.025px 157.795px;" id="elhsy3kc5n407" class="animable"></polygon><polygon points="202.15 114.02 202.31 160.95 202.15 201.57 202 160.95 202.15 114.02" style="fill: rgb(199, 199, 199); transform-origin: 202.155px 157.795px;" id="el4b4y4xgqffk" class="animable"></polygon><polygon points="196.28 114.02 196.43 160.95 196.28 201.57 196.12 160.95 196.28 114.02" style="fill: rgb(199, 199, 199); transform-origin: 196.275px 157.795px;" id="elilmbzc4zlts" class="animable"></polygon><polygon points="190.41 114.02 190.56 160.95 190.41 201.57 190.25 160.95 190.41 114.02" style="fill: rgb(199, 199, 199); transform-origin: 190.405px 157.795px;" id="elmf0yuwjzpfh" class="animable"></polygon><polygon points="184.53 114.02 184.69 160.95 184.53 201.57 184.38 160.95 184.53 114.02" style="fill: rgb(199, 199, 199); transform-origin: 184.535px 157.795px;" id="el33d5zxgtvzg" class="animable"></polygon><polygon points="178.66 114.02 178.81 160.95 178.66 201.57 178.5 160.95 178.66 114.02" style="fill: rgb(199, 199, 199); transform-origin: 178.655px 157.795px;" id="el2gs3ozvs4r8" class="animable"></polygon><polygon points="172.79 114.02 172.94 160.95 172.79 201.57 172.63 160.95 172.79 114.02" style="fill: rgb(199, 199, 199); transform-origin: 172.785px 157.795px;" id="el6bwwkwpf3u9" class="animable"></polygon><polygon points="166.91 114.02 167.07 160.95 166.91 201.57 166.76 160.95 166.91 114.02" style="fill: rgb(199, 199, 199); transform-origin: 166.915px 157.795px;" id="el6ktakktjam" class="animable"></polygon><polygon points="161.04 114.02 161.2 160.95 161.04 201.57 160.89 160.95 161.04 114.02" style="fill: rgb(199, 199, 199); transform-origin: 161.045px 157.795px;" id="elp4c5muhw7d" class="animable"></polygon><polygon points="155.17 114.02 155.32 160.95 155.17 201.57 155.01 160.95 155.17 114.02" style="fill: rgb(199, 199, 199); transform-origin: 155.165px 157.795px;" id="elkff9779zevh" class="animable"></polygon><polygon points="149.29 114.02 149.45 160.95 149.29 201.57 149.14 160.95 149.29 114.02" style="fill: rgb(199, 199, 199); transform-origin: 149.295px 157.795px;" id="el8amrqm22la2" class="animable"></polygon><polygon points="143.42 114.02 143.58 160.95 143.42 201.57 143.27 160.95 143.42 114.02" style="fill: rgb(199, 199, 199); transform-origin: 143.425px 157.795px;" id="elgycmqcwabei" class="animable"></polygon><polygon points="137.55 114.02 137.7 160.95 137.55 201.57 137.39 160.95 137.55 114.02" style="fill: rgb(199, 199, 199); transform-origin: 137.545px 157.795px;" id="elhnqmbtl78bh" class="animable"></polygon><polygon points="131.68 114.02 131.83 160.95 131.68 201.57 131.52 160.95 131.68 114.02" style="fill: rgb(199, 199, 199); transform-origin: 131.675px 157.795px;" id="elbzfjhy9wl5" class="animable"></polygon><polygon points="125.8 114.02 125.96 160.95 125.8 201.57 125.65 160.95 125.8 114.02" style="fill: rgb(199, 199, 199); transform-origin: 125.805px 157.795px;" id="elxnyiwsor48g" class="animable"></polygon><path d="M119.48,113.3l.25,21.3.16,21.29c.12,14.2.15,28.4.17,42.59l-.58-.52,35,0,21.25.06,35,.17,2,.31-2,.32-35,.17-21.25.06-35,0h-.57v-.53c0-14.19,0-28.39.17-42.59l.16-21.29Z" style="fill: rgb(199, 199, 199); transform-origin: 165.82px 156.175px;" id="el6f9srxhz98" class="animable"></path><polygon points="119.92 198.21 119.05 197.71 125.57 186.38 137.41 186.38 143.23 180.99 149.07 180.99 155.03 170.16 166.62 170.16 178.36 148.64 184.24 148.64 190.11 138.12 201.88 138.12 209.22 126.91 210.05 127.45 202.42 139.12 190.7 139.12 184.83 149.64 178.96 149.64 167.21 171.16 155.62 171.16 149.67 181.99 143.62 181.99 137.8 187.38 126.15 187.38 119.92 198.21" style="fill: rgb(255, 191, 39); transform-origin: 164.55px 162.56px;" id="elzllwevis5r" class="animable"></polygon><polygon points="212.3 130.3 212.74 122.44 205.71 125.99 212.3 130.3" style="fill: rgb(255, 191, 39); transform-origin: 209.225px 126.37px;" id="elgcku9rivf8" class="animable"></polygon><path d="M274.64,248.21a11.63,11.63,0,1,1-1.54-5.79A11.63,11.63,0,0,1,274.64,248.21Z" style="fill: rgb(69, 90, 100); transform-origin: 263.01px 248.204px;" id="ela3juz40jw1" class="animable"></path><path d="M273.1,242.42,263,248.21V236.57A11.65,11.65,0,0,1,273.1,242.42Z" style="fill: rgb(255, 191, 39); transform-origin: 268.05px 242.39px;" id="elo7pi4ivtiq" class="animable"></path><g id="el3w7v5d7oleg"><circle cx="263" cy="248.21" r="8.05" style="fill: rgb(255, 255, 255); transform-origin: 263px 248.21px; transform: rotate(-80.81deg);" class="animable"></circle></g><rect x="259.65" y="246.42" width="6.7" height="0.95" style="fill: rgb(38, 50, 56); transform-origin: 263px 246.895px;" id="elqd1qv07hr5" class="animable"></rect><rect x="257.99" y="249.05" width="10.02" height="0.95" style="fill: rgb(166, 166, 166); transform-origin: 263px 249.525px;" id="eld8cqwdmy0ep" class="animable"></rect><path d="M307.2,248.21a11.82,11.82,0,0,1-.13,1.7,11.55,11.55,0,1,1,.13-1.7Z" style="fill: rgb(69, 90, 100); transform-origin: 295.65px 248.182px;" id="elybkwwb1qzii" class="animable"></path><path d="M307.2,248.21a11.82,11.82,0,0,1-.13,1.7l-11.51-1.7V236.57a11.63,11.63,0,0,1,11.64,11.64Z" style="fill: rgb(255, 191, 39); transform-origin: 301.38px 243.24px;" id="elaa26azki7zi" class="animable"></path><g id="elpem9qc2myiq"><circle cx="295.56" cy="248.21" r="8.05" style="fill: rgb(255, 255, 255); transform-origin: 295.56px 248.21px; transform: rotate(-78.34deg);" class="animable"></circle></g><rect x="292.21" y="246.42" width="6.7" height="0.95" style="fill: rgb(38, 50, 56); transform-origin: 295.56px 246.895px;" id="elyiugwroqme" class="animable"></rect><rect x="290.55" y="249.05" width="10.02" height="0.95" style="fill: rgb(166, 166, 166); transform-origin: 295.56px 249.525px;" id="elfsp2pv8vavt" class="animable"></rect><path d="M340,248.21a11.63,11.63,0,1,1-1.54-5.79A11.63,11.63,0,0,1,340,248.21Z" style="fill: rgb(69, 90, 100); transform-origin: 328.37px 248.204px;" id="el37u8ub1aak" class="animable"></path><path d="M340,248.21a11.63,11.63,0,0,1-7.47,10.86l-4.17-10.86V236.57A11.63,11.63,0,0,1,340,248.21Z" style="fill: rgb(255, 191, 39); transform-origin: 334.18px 247.82px;" id="el1g429cy8p80g" class="animable"></path><path d="M336.39,248.21a8,8,0,1,1-8.05-8.05A8.05,8.05,0,0,1,336.39,248.21Z" style="fill: rgb(255, 255, 255); transform-origin: 328.39px 248.16px;" id="elq7scow1dgf" class="animable"></path><rect x="324.99" y="246.42" width="6.7" height="0.95" style="fill: rgb(38, 50, 56); transform-origin: 328.34px 246.895px;" id="elzlgm7it4cpi" class="animable"></rect><rect x="323.33" y="249.05" width="10.02" height="0.95" style="fill: rgb(166, 166, 166); transform-origin: 328.34px 249.525px;" id="eldnh58g99xrw" class="animable"></rect><path d="M372.58,248.21a11.61,11.61,0,1,1-1.53-5.79A11.61,11.61,0,0,1,372.58,248.21Z" style="fill: rgb(69, 90, 100); transform-origin: 360.97px 248.181px;" id="el73f83f712vx" class="animable"></path><path d="M372.58,248.21a11.63,11.63,0,0,1-19.18,8.85l7.55-8.85V236.57a11.61,11.61,0,0,1,11.63,11.64Z" style="fill: rgb(255, 191, 39); transform-origin: 362.99px 248.207px;" id="elfn6oo6ixolj" class="animable"></path><g id="ellcdq4fcqqt"><circle cx="360.95" cy="248.21" r="8.05" style="fill: rgb(255, 255, 255); transform-origin: 360.95px 248.21px; transform: rotate(-80.44deg);" class="animable"></circle></g><rect x="357.6" y="246.42" width="6.7" height="0.95" style="fill: rgb(38, 50, 56); transform-origin: 360.95px 246.895px;" id="el3yevjqjb74w" class="animable"></rect><rect x="355.94" y="249.05" width="10.02" height="0.95" style="fill: rgb(166, 166, 166); transform-origin: 360.95px 249.525px;" id="elw3536ukfjhk" class="animable"></rect></g><g id="freepik--Floor--inject-27" class="animable" style="transform-origin: 250px 419.33px;"><polygon points="41.27 419.33 93.45 419.09 145.64 419 250 418.83 354.36 419 406.55 419.09 458.73 419.33 406.55 419.58 354.36 419.67 250 419.83 145.64 419.66 93.45 419.58 41.27 419.33" style="fill: rgb(38, 50, 56); transform-origin: 250px 419.33px;" id="elxos2kml906" class="animable"></polygon></g><g id="freepik--Plant--inject-27" class="animable" style="transform-origin: 73.79px 348.02px;"><path d="M75.57,363.74s8.25-29.61,14.84-39.67S109.28,303,109.28,303,109,348.62,75.57,363.74Z" style="fill: rgb(255, 191, 39); transform-origin: 92.425px 333.37px;" id="elcexkrcn7sn9" class="animable"></path><path d="M76.17,363.23a143.75,143.75,0,0,0,7.52-14.35,100.76,100.76,0,0,1,4.09-15.57.08.08,0,0,1,.15.05c-1.1,4.68-2.37,9.32-3.53,14,3.33-7.2,6.5-14.5,10.47-21.31a45.11,45.11,0,0,1,3.82-9.48c0-.09.19,0,.15.05a59.9,59.9,0,0,0-2.58,7.11,71.86,71.86,0,0,1,6.27-8.66c.14-.17.43,0,.29.2-5.3,6.77-9,14.47-12.45,22.27a119,119,0,0,0,10.35-12.94c0-.05.1,0,.07.05A105.71,105.71,0,0,1,89.71,339c-2.54,5.71-5,11.45-8.06,16.88,6-5.11,10.7-11.73,15.3-18.11.11-.15.33,0,.23.15-4.61,7-9.37,13.6-16,18.79a73.78,73.78,0,0,1-4.43,6.92A.35.35,0,0,1,76.17,363.23Z" style="fill: rgb(38, 50, 56); transform-origin: 89.4828px 339.391px;" id="elvhzto9vjosb" class="animable"></path><path d="M73,366.4s14.83-27.3,10.52-53.77-8.92-35.9-8.92-35.9S51.31,317.9,73,366.4Z" style="fill: rgb(255, 191, 39); transform-origin: 74.0318px 321.565px;" id="el8cmfrz5b2k6" class="animable"></path><path d="M66.93,323.48a129.63,129.63,0,0,0,5.72,22c0-9.72.23-19.43.49-29.15a75.27,75.27,0,0,1-2.8-18.09c0-.18.26-.17.28,0a101.89,101.89,0,0,0,2.6,15.56q.33-12,.78-24a.11.11,0,0,1,.21,0c0,12.52,0,25-.09,37.56a99.63,99.63,0,0,0,4.28-14.87s.09,0,.08,0a58.06,58.06,0,0,1-4.37,16.92c-.06,8-.15,16-.33,24C76.29,345,79,336.71,79.7,327.72a.1.1,0,0,1,.19,0c-.2,9.91-2.76,20-6,29.29a.46.46,0,0,1-.16.24c-.08,2.92-.16,5.85-.26,8.77a.33.33,0,0,1-.65,0q-.17-9-.14-17.95A80.34,80.34,0,0,1,66.8,323.5C66.79,323.42,66.92,323.41,66.93,323.48Z" style="fill: rgb(38, 50, 56); transform-origin: 73.3447px 328.008px;" id="eliq3yubq91p" class="animable"></path><path d="M68,319.26a50.08,50.08,0,0,1,1,7.21c0,.08-.12.09-.14,0a51.41,51.41,0,0,1-1.22-7.19C67.6,319.11,67.91,319.08,68,319.26Z" style="fill: rgb(38, 50, 56); transform-origin: 68.3182px 322.836px;" id="elix4vvo5o26" class="animable"></path><path d="M76.62,299.3c0-.08.14-.06.14,0a18.32,18.32,0,0,1-.75,5c0,.13-.22.07-.2-.06C76.14,302.6,76.34,300.94,76.62,299.3Z" style="fill: rgb(38, 50, 56); transform-origin: 76.2844px 301.81px;" id="elmve1aqg4vr" class="animable"></path><path d="M67.61,368.49s.6-28.5-7.57-42.66S38.3,304.44,38.3,304.44,43.77,354.68,67.61,368.49Z" style="fill: rgb(255, 191, 39); transform-origin: 52.9599px 336.465px;" id="eluxvidkm1ldf" class="animable"></path><path d="M52.71,344.12a105.73,105.73,0,0,0,11.06,14q-2.45-8.73-5.66-17.18c-4.58-4-9.12-8.19-11.94-13.69a.08.08,0,0,1,.14-.08c3,4.88,7.06,8.77,11.32,12.52a223.09,223.09,0,0,0-11.38-24.78.18.18,0,0,1,.31-.19,136.78,136.78,0,0,1,7.14,13c-.77-3-1.38-6.16-2.17-9.18a.07.07,0,0,1,.13,0A52,52,0,0,1,55,330.62a145.64,145.64,0,0,1,7.2,19.5c-.21-4.27-.48-8.53-.92-12.79,0-.08.12-.09.14,0a69.12,69.12,0,0,1,1.24,14.35q1.77,6.38,3,12.88a.09.09,0,0,1-.18.05c-.44-1.82-.92-3.62-1.41-5.42,0,0-.07,0-.1,0-4.38-4.4-8.55-9.4-11.28-15A0,0,0,1,1,52.71,344.12Z" style="fill: rgb(38, 50, 56); transform-origin: 55.9114px 339.656px;" id="el5ry7mvi4vd" class="animable"></path><path d="M43.24,320.93c.91,1,1.74,2,2.62,3a23.64,23.64,0,0,1,2.36,2.75,0,0,0,0,1-.07.06,13.81,13.81,0,0,1-2.72-2.68A23,23,0,0,1,43.11,321,.08.08,0,0,1,43.24,320.93Z" style="fill: rgb(38, 50, 56); transform-origin: 45.6648px 323.826px;" id="elwdnhvs0wpf" class="animable"></path><path d="M91.9,365l-1,13.5-3.11,40.81H60.68l-3.11-40.81-1-13.5H91.9Z" style="fill: rgb(69, 90, 100); transform-origin: 74.235px 392.155px;" id="elznjgfdq27gf" class="animable"></path><path d="M91.9,365l-1,13.5H57.57l-1-13.5H91.9Z" style="fill: rgb(55, 71, 79); transform-origin: 74.235px 371.75px;" id="elo0gfqlt3q4" class="animable"></path><g id="elwar9rx0vpzk"><rect x="54.14" y="358.39" width="40.17" height="10.35" style="fill: rgb(69, 90, 100); transform-origin: 74.225px 363.565px; transform: rotate(180deg);" class="animable"></rect></g></g><g id="freepik--Character--inject-27" class="animable animator-active" style="transform-origin: 340.435px 292.107px;"><path d="M284.49,450.35c2.06.66,62.72-.1,64.93-1.54.85-.54-3.41-57.61-3.41-57.61l-39.2.39L311,429.77s-22.3,10.33-24.56,12.17S282.44,449.7,284.49,450.35Z" style="fill: rgb(173, 99, 89); transform-origin: 316.555px 420.895px;" id="elhn2x5l8zs3u" class="animable"></path><path d="M283.83,451.18c2.16.71,63.42.13,65.75-1.38.9-.56-.4-20.77-.4-20.88H311.29l0,.68s-23.54,10.79-25.94,12.73S281.66,450.49,283.83,451.18Z" style="fill: rgb(255, 191, 39); transform-origin: 316.31px 440.201px;" id="elqx6l42rnfw" class="animable"></path><path d="M284,448.78c10.41-.35,52.43-.79,62.75-.35.08,0,.08.06,0,.07-10.31.57-52.33.67-62.75.45C283.77,449,283.77,448.79,284,448.78Z" style="fill: rgb(38, 50, 56); transform-origin: 315.319px 448.652px;" id="elb83slpo1vom" class="animable"></path><path d="M306.86,429.07c4.09-.8,9.1-.22,12.26,2.67.12.12,0,.29-.17.25a57.75,57.75,0,0,0-12.07-2.4A.26.26,0,0,1,306.86,429.07Z" style="fill: rgb(38, 50, 56); transform-origin: 312.889px 430.369px;" id="el14u8ovz3srk" class="animable"></path><path d="M303.91,430.88c4.09-.8,9.11-.22,12.27,2.67.12.12,0,.29-.17.25a57.75,57.75,0,0,0-12.07-2.4A.26.26,0,0,1,303.91,430.88Z" style="fill: rgb(38, 50, 56); transform-origin: 309.948px 432.179px;" id="elisgdcf20f9" class="animable"></path><path d="M301,432.69c4.09-.8,9.11-.22,12.27,2.67.12.12,0,.29-.17.25a57.71,57.71,0,0,0-12.08-2.4A.26.26,0,0,1,301,432.69Z" style="fill: rgb(38, 50, 56); transform-origin: 307.034px 433.989px;" id="els1bmm4g97b" class="animable"></path><path d="M308.49,429.49H350.7s-8.61-98.8-8.27-100.53c.42-2.2,2.91-12.18,6.23-25.21,1-4.08,2.16-8.46,3.32-13,3.15-12.27,6.62-25.67,9.64-37.33,4.54-17.47,8.08-31.05,8.08-31.05H333.93s-4.17,13.22-9.42,30.41c-8.57,27.94-20,66.4-21.13,75.75C301.55,343.64,308.49,429.49,308.49,429.49Z" style="fill: rgb(55, 71, 79); transform-origin: 336.386px 325.93px;" id="el7ba2ccg3roq" class="animable"></path><path d="M310.36,422.29c6.45-.13,4.59-.19,11-.25,3.16,0,23.89-.21,26.83.28a.07.07,0,0,1,0,.13c-2.94.49-23.67.31-26.83.28-6.45-.07-4.59-.12-11-.25A.1.1,0,0,1,310.36,422.29Z" style="fill: rgb(38, 50, 56); transform-origin: 329.263px 422.391px;" id="el3mxttj30swi" class="animable"></path><path d="M363.19,227.23l-6.57,23.18-6.41,23.21c-2.13,7.74-4.19,15.5-6.25,23.26s-4.08,15.53-6,23.34c-.45,2-.92,3.91-1.31,5.9-.1.49-.17,1-.26,1.51a8.13,8.13,0,0,0,0,.84l.06.75.23,3,.93,12,1.89,24,1.95,24,2.05,24-1.61-24-1.69-24-1.76-24-.89-12-.23-3-.05-.75c0-.24,0-.43,0-.65.09-.49.15-1,.26-1.46.38-2,.86-3.91,1.31-5.86,3.76-15.59,7.95-31.1,12-46.63Z" style="fill: rgb(38, 50, 56); transform-origin: 349.785px 321.725px;" id="elsemddfffd6j" class="animable"></path><path d="M334.79,222.38c2.48,19.21,11.46,51.13,14.91,77.26,8.07-31.66,20-77.26,20-77.26Z" style="fill: rgb(38, 50, 56); transform-origin: 352.245px 261.01px;" id="elf6qmj4xd2sb" class="animable"></path><path d="M421,450.05c-2.08.64-53,.87-55.24-.61-.85-.54-1.15-9.14-1.21-19.53v-.32c0-2.15-4.95-38.13-4.95-38.13l38.5.78,4.45,37.8,0,.65s14.37,9,16.63,10.89S423.07,449.41,421,450.05Z" style="fill: rgb(173, 99, 89); transform-origin: 390.776px 421.003px;" id="elwvlhyg29lr" class="animable"></path><path d="M423.51,451.18c-2.16.71-57,.13-59.3-1.38-.9-.56.4-20.77.4-20.88H402.5l0,.68s17.09,10.79,19.49,12.73S425.68,450.49,423.51,451.18Z" style="fill: rgb(255, 191, 39); transform-origin: 394.255px 440.201px;" id="el7wx0m7tkqzm" class="animable"></path><path d="M423.35,448.78c-10.41-.35-46-.79-56.29-.35-.09,0-.09.06,0,.07,10.31.57,45.87.67,56.29.45C423.57,449,423.57,448.79,423.35,448.78Z" style="fill: rgb(38, 50, 56); transform-origin: 395.254px 448.652px;" id="eli0yxhcuk2iq" class="animable"></path><path d="M404.39,430.05c-4-1.12-9.06-.93-12.43,1.71-.13.1,0,.29.15.26a57.08,57.08,0,0,1,12.22-1.45A.27.27,0,0,0,404.39,430.05Z" style="fill: rgb(38, 50, 56); transform-origin: 398.235px 430.713px;" id="elu3xxps0g9af" class="animable"></path><path d="M407.18,432.08c-4-1.11-9.06-.92-12.43,1.71-.13.1,0,.29.15.26a57.08,57.08,0,0,1,12.22-1.45A.27.27,0,0,0,407.18,432.08Z" style="fill: rgb(38, 50, 56); transform-origin: 401.025px 432.746px;" id="ele3japw58194" class="animable"></path><path d="M410,434.12c-4-1.12-9.06-.93-12.43,1.71-.13.1,0,.28.15.25a57.73,57.73,0,0,1,12.22-1.45A.26.26,0,0,0,410,434.12Z" style="fill: rgb(38, 50, 56); transform-origin: 403.853px 434.778px;" id="el3nqqax2ogcl" class="animable"></path><path d="M334.79,222.38s5.42,33.06,5.79,34.12c0,0,2,1,5.65,2.64l15.82,170.61,42.41.17L381.07,222.38Z" style="fill: rgb(55, 71, 79); transform-origin: 369.625px 326.15px;" id="eli994q4w5yno" class="animable"></path><path d="M363.51,422.2c6.47-.1,4.61-.16,11.09-.2,3.17,0,24-.11,27,.39a.07.07,0,0,1,0,.14c-3,.47-23.8.2-27,.16-6.48-.09-4.62-.13-11.1-.3C363.38,422.39,363.38,422.21,363.51,422.2Z" style="fill: rgb(38, 50, 56); transform-origin: 382.541px 422.397px;" id="elu58ml3oyowi" class="animable"></path><path d="M338.82,255.48a79.43,79.43,0,0,1,12.12,6.35.14.14,0,0,1-.13.25c-4.09-2-8.27-3.9-12.24-6.11A.28.28,0,0,1,338.82,255.48Z" style="fill: rgb(38, 50, 56); transform-origin: 344.739px 258.782px;" id="elbb1wt26wqh" class="animable"></path><path d="M340.38,236.54c.66,4,1,8,1.48,12,.11,1,.22,1.91.32,2.87a5.61,5.61,0,0,0,.69,2.51c.86,1.34,2.4,2,3.8,2.57.16.07.09.33-.08.27a9.33,9.33,0,0,1-4-2.13c-1.27-1.35-1.23-3.38-1.42-5.11a109.58,109.58,0,0,1-.93-12.92A.09.09,0,0,1,340.38,236.54Z" style="fill: rgb(38, 50, 56); transform-origin: 343.5px 246.646px;" id="eld5b50rekfo" class="animable"></path><path d="M345.19,237.75c.14,2.85.45,5.7.69,8.55.12,1.4.22,2.81.3,4.21s.26,2.89.21,4.32a.09.09,0,0,1-.17,0c-.24-1.35-.27-2.76-.38-4.13s-.22-2.88-.3-4.32c-.16-2.88-.24-5.78-.49-8.65C345,237.66,345.18,237.66,345.19,237.75Z" style="fill: rgb(38, 50, 56); transform-origin: 345.72px 246.285px;" id="elnlz0d1tyspn" class="animable"></path><polygon points="347.1 263.37 349.37 282.77 351.74 302.16 356.62 340.92 361.71 379.65 364.32 399.01 367.04 418.36 364.77 398.95 362.4 379.56 357.52 340.81 352.43 302.07 349.81 282.72 347.1 263.37" style="fill: rgb(38, 50, 56); transform-origin: 357.07px 340.865px;" id="elrszalzlyvj" class="animable"></polygon><path d="M348.66,182.6c-9.12,10.54-26.76,25.67-34.28,28.64-8.36,3.3-27.46-15.88-39.92-27.54-2.48-2.32,14.31-22.67,16.83-20.06,6.58,6.81,19.95,22.32,22.09,22.23,1.74-.07,17.77-7.65,26.76-12C354.46,166.88,355.08,175.18,348.66,182.6Z" style="fill: rgb(173, 99, 89); transform-origin: 313.388px 187.513px;" id="elifh0e4w1us" class="animable"></path><path d="M263.37,173.64c2.84,4.49,12.23,11.4,15.14,12.2s15.18-14.78,14.43-17.78-11.47-17.38-16.59-19.14S260.43,169,263.37,173.64Z" style="fill: rgb(173, 99, 89); transform-origin: 277.922px 167.345px;" id="elacu0e5p9btn" class="animable"></path><path d="M291.55,165.29a43.86,43.86,0,0,1-.47-12.8c.74-5.06,2.41-12.49-.3-13-5.56-1-9.71,17.51-9.71,17.51s-.52,8.48,4.9,10A5.6,5.6,0,0,0,291.55,165.29Z" style="fill: rgb(173, 99, 89); transform-origin: 286.663px 153.313px;" id="eluphm4zb2kje" class="animable"></path><path d="M283.68,153.22c-1.32,2.48-3.29,1.27-3.29,1.27s4.28,3.38,3.22,6.3-5,.81-5.3.67c.23.18,4.08,3.39,2.71,6.21s-5.08.24-5.31.06c.16.24,2.2,3.42.67,5.33-2.63,3.28-8.08-4.7-11.45-5.19,0,0-1.48,5.62-1.56,5.77s-5.34-7.48-4.43-12a2.93,2.93,0,0,1,2.79-2.4s-2-2.22-1-4.48c.52-1.16,2.84-1.35,2.84-1.35a3.69,3.69,0,0,1-.5-3.8c.81-1.56,3-1.52,3-1.52s-11.36-7.78-9.64-10.5c3-4.68,24.21,13,26.6,12.44C284.24,149.77,284.26,152.14,283.68,153.22Z" style="fill: rgb(173, 99, 89); transform-origin: 270.152px 155.325px;" id="elnjqg75vfir" class="animable"></path><path d="M266.45,148.06c-.05,0,0-.09,0-.08a26.16,26.16,0,0,1,14.12,6.57c.12.12.29.88.15.76C277.12,152.26,271.63,149.64,266.45,148.06Z" style="fill: rgb(38, 50, 56); transform-origin: 273.6px 151.651px;" id="elp1dex98sxt" class="animable"></path><path d="M263.53,153.36c-.06,0,0-.11,0-.1a24.52,24.52,0,0,1,15,8.13c.13.15.08.43-.08.26C275.69,158.78,268.2,154.76,263.53,153.36Z" style="fill: rgb(38, 50, 56); transform-origin: 271.054px 157.481px;" id="elgfgyn9wdje" class="animable"></path><path d="M275.86,168.15c-3.81-4.28-8.6-6.9-13.91-8.88-.07,0,0-.12,0-.12,2.86.27,6.11,1.88,8.54,3.36A15.13,15.13,0,0,1,276,168C276.06,168.1,275.94,168.24,275.86,168.15Z" style="fill: rgb(38, 50, 56); transform-origin: 268.968px 163.664px;" id="elefgims95oik" class="animable"></path><path d="M280.48,154.47c.15.14-.47.22-.33.37,1.53,1.58,4.12,4.55,3.11,6.08-.81,1.23-3,1-3.83.57l-2.05-1.07,1.55,1.72a9.17,9.17,0,0,1,1.68,2.55,3.35,3.35,0,0,1,.15,2.76,1.94,1.94,0,0,1-2.11,1.19,5.88,5.88,0,0,1-2.65-1.25l-2.15-1.68,1.48,2.28a8.92,8.92,0,0,1,1,2,3.64,3.64,0,0,1,.15,2.1,1.73,1.73,0,0,1-1.34,1.24,3.79,3.79,0,0,1-2.09-.5,30,30,0,0,1-3.95-2.62c-.65-.47-1.3-.94-2-1.38a5.62,5.62,0,0,0-2.18-1,6.19,6.19,0,0,1,2.05,1.18c.63.48,1.24,1,1.85,1.52a26.64,26.64,0,0,0,3.89,2.88,4.5,4.5,0,0,0,2.49.69,2.46,2.46,0,0,0,2.05-1.76,4.44,4.44,0,0,0-.11-2.61,9.72,9.72,0,0,0-1.06-2.29l-.68.6a6.72,6.72,0,0,0,3.11,1.51,2.85,2.85,0,0,0,1.86-.34,3.21,3.21,0,0,0,1.22-1.42,4.27,4.27,0,0,0-.18-3.49,10.55,10.55,0,0,0-1.9-2.78l-.49.65c1.05.5,3.49,1,5-.71C285.63,158.94,281.32,155.11,280.48,154.47Z" style="fill: rgb(38, 50, 56); transform-origin: 274.648px 164.286px;" id="ellv3qft186v" class="animable"></path><path d="M294.52,165.77l-20.59,22.78s31.93,26.69,39.19,24.17,27.86-18.55,37-30.42-.49-13-7.8-9.88-27.73,12.84-28.82,13C311.4,185.59,294.52,165.77,294.52,165.77Z" style="fill: rgb(255, 191, 39); transform-origin: 313.89px 189.329px;" id="elp7iteverq2" class="animable"></path><path d="M280.16,190.44c.76-.79,1.42-1.71,2.12-2.55s1.43-1.68,2.16-2.51c1.4-1.6,2.81-3.2,4.2-4.8,2.83-3.26,5.6-6.59,8.59-9.7,0,0,.12,0,.09.07A113.64,113.64,0,0,1,289.23,181c-1.43,1.63-2.87,3.24-4.34,4.83-.74.81-1.49,1.61-2.27,2.39s-1.63,1.49-2.36,2.29C280.2,190.61,280.1,190.51,280.16,190.44Z" style="fill: rgb(38, 50, 56); transform-origin: 288.733px 180.716px;" id="eli6dcg0a43k" class="animable"></path><g id="elodk8hcl2hm"><path d="M350.11,182.3c-6.69,8.69-19.51,19.61-28.75,25.83l29-37.1C354.2,171.64,355.83,174.88,350.11,182.3Z" style="opacity: 0.1; transform-origin: 337.599px 189.58px;" class="animable"></path></g><path d="M323.79,243c.85,1.07,61.45,5.46,61.78,5.11.91-1-10.53-62.55-21.71-75.69-3.3-3.89-14.6-2.61-15.91-1.64-3.49,2.55-6.68,7.6-9.38,14.15C333.17,198.06,323.06,242.06,323.79,243Z" style="fill: rgb(255, 255, 255); transform-origin: 354.687px 208.952px;" id="el9al9rlz0q9" class="animable"></path><path d="M360.66,170.54s-7.45,31.12-7.45,39.53c0,13.44.9,40.78.9,40.78h34.54s-7.25-29.86-8-33.36S373.36,193,373.36,193,366.74,170.54,360.66,170.54Z" style="fill: rgb(255, 191, 39); transform-origin: 370.93px 210.695px;" id="el7lpc90r1q4j" class="animable"></path><path d="M348,170.54a153.31,153.31,0,0,0-8.77,23.87c-3.3,12.49-9.34,55.5-9.34,55.5l-8.46-6.19S333,198.8,336.62,189.44s8.39-17.6,8.75-17.83A7.34,7.34,0,0,1,348,170.54Z" style="fill: rgb(255, 191, 39); transform-origin: 334.715px 210.225px;" id="elg4jnlt2ysrs" class="animable"></path><path d="M348.86,179.28c-.47,5.41-1,10.81-1.62,16.21s-1.25,10.78-1.87,16.17-1.36,10.77-2.1,16.14l-1.12,8.07c-.42,2.68-.79,5.37-1.23,8,.22-2.71.5-5.41.76-8.11l.86-8.1c.58-5.39,1.25-10.78,1.87-16.17s1.36-10.77,2.1-16.14S348,184.65,348.86,179.28Z" style="fill: rgb(38, 50, 56); transform-origin: 344.89px 211.575px;" id="elor76ol3fzgs" class="animable"></path><path d="M350.81,196.3a1,1,0,0,1-1.11.91,1,1,0,1,1,.21-2A1,1,0,0,1,350.81,196.3Z" style="fill: rgb(38, 50, 56); transform-origin: 349.806px 196.21px;" id="el4vyk6inw769" class="animable"></path><path d="M349.33,206.68a1,1,0,1,1-.91-1.12A1,1,0,0,1,349.33,206.68Z" style="fill: rgb(38, 50, 56); transform-origin: 348.338px 206.557px;" id="eltjcqdusl61" class="animable"></path><path d="M347.84,217.06a1,1,0,1,1-.91-1.12A1,1,0,0,1,347.84,217.06Z" style="fill: rgb(38, 50, 56); transform-origin: 346.848px 216.937px;" id="el5cslkwxbeat" class="animable"></path><path d="M346.35,227.44a1,1,0,0,1-2-.21,1,1,0,1,1,2,.21Z" style="fill: rgb(38, 50, 56); transform-origin: 345.35px 227.335px;" id="elv3pdjbgkwka" class="animable"></path><path d="M344.87,237.82a1,1,0,1,1-.91-1.12A1,1,0,0,1,344.87,237.82Z" style="fill: rgb(38, 50, 56); transform-origin: 343.878px 237.697px;" id="elmueflh4bnyl" class="animable"></path><g id="elisqdlfqiq4"><rect x="333.6" y="202.28" width="36.28" height="47.22" style="fill: rgb(69, 90, 100); transform-origin: 351.74px 225.89px; transform: rotate(-6.69deg);" class="animable"></rect></g><g id="elcowa5njvmoo"><rect x="340.56" y="199.99" width="17.19" height="5.21" style="fill: rgb(166, 166, 166); transform-origin: 349.155px 202.595px; transform: rotate(-6.62deg);" class="animable"></rect></g><polygon points="353.52 199.47 351.42 199.72 351.14 197.33 346.03 197.92 346.31 200.31 344.2 200.55 343.7 196.21 353.05 195.12 353.52 199.47" style="fill: rgb(166, 166, 166); transform-origin: 348.61px 197.835px;" id="ely6ppls3vr1p" class="animable"></polygon><path d="M368.89,176c19,18.49,41.57,53.8,33.94,59.63-7,5.33-32.52,8.53-43.33,8.69-3.17.05-3-24.67.36-24.72,4.1-.06,14.35-1.15,14.75-1.28.83-.28-8.41-27.53-12.13-36C357.85,171.83,362.24,169.47,368.89,176Z" style="fill: rgb(173, 99, 89); transform-origin: 380.79px 208.342px;" id="elmbxqdps6xw" class="animable"></path><path d="M327.68,222.06a3.79,3.79,0,0,0,1.37,4.09,5.62,5.62,0,0,0-1.94,3.29c-.32,2.29,3.13,3.79,3.13,3.79a6.9,6.9,0,0,0-1.49,3.79c-.09,2.22,3.17,4.24,3.17,4.24a6.11,6.11,0,0,0,.79,4.16c2.15,3.25,8.1,3.1,11.88,3s14.45-3.75,16.56-4.25L361,219.94s-17-4.58-21.46-3.88C335.79,216.65,328.62,219.26,327.68,222.06Z" style="fill: rgb(173, 99, 89); transform-origin: 344.12px 232.223px;" id="elp3jeawsz7df" class="animable"></path><path d="M329.21,225.76c3.83-1.58,7.91-1.94,12-2.53.09,0,.11.13,0,.14-4,.54-7.91,1.88-11.92,2.58A.1.1,0,0,1,329.21,225.76Z" style="fill: rgb(38, 50, 56); transform-origin: 335.216px 224.594px;" id="elducr4bo9ni" class="animable"></path><path d="M330.32,232.91a10.78,10.78,0,0,1,2.78-.46c1-.09,2-.17,3-.23,2-.12,4-.2,6-.22.09,0,.12.13,0,.14q-3,.18-6,.49l-3,.34a12.73,12.73,0,0,1-2.82.22A.15.15,0,0,1,330.32,232.91Z" style="fill: rgb(38, 50, 56); transform-origin: 336.189px 232.599px;" id="el8le8u5ooahj" class="animable"></path><path d="M332,241.25a7.35,7.35,0,0,1,2.52-.28l2.74-.13c1.82-.09,3.64-.19,5.45-.35a.07.07,0,1,1,0,.14c-1.84.17-3.68.37-5.53.52l-2.72.22a7.12,7.12,0,0,1-2.48,0S332,241.27,332,241.25Z" style="fill: rgb(38, 50, 56); transform-origin: 337.38px 240.984px;" id="eltamfhfrhdxl" class="animable"></path><path d="M347.21,266.62a.06.06,0,0,1,0-.09.08.08,0,0,1,.09,0l.15.37a.1.1,0,0,1,0,.1.07.07,0,0,1-.09-.05C347.3,266.87,347.25,266.74,347.21,266.62Z" style="fill: rgb(38, 50, 56); transform-origin: 347.327px 266.76px;" id="eljtr66wrmvd" class="animable"></path><path d="M360.17,218.24l3,29.32s39-6.32,41.81-13.5c3.38-8.77-19.71-42.71-32.07-54.93s-15.36-7.27-10.68,4.4,11.63,33.07,11.51,33.58S360.17,218.24,360.17,218.24Z" style="fill: rgb(255, 191, 39); transform-origin: 382.725px 209.799px;" id="ela5f5ynm1j3f" class="animable"></path><path d="M368.56,245.26c-.07-1.09-.29-2.2-.44-3.28s-.26-2.19-.38-3.29c-.23-2.11-.45-4.23-.69-6.35-.48-4.28-1.06-8.57-1.32-12.88,0-.06.1-.08.11,0a112.62,112.62,0,0,1,1.94,12.78c.23,2.15.44,4.31.62,6.46.09,1.09.17,2.19.21,3.29s0,2.21.1,3.29C368.72,245.35,368.57,245.36,368.56,245.26Z" style="fill: rgb(38, 50, 56); transform-origin: 367.22px 232.371px;" id="elc8tk2ql7jce" class="animable"></path><path d="M396.41,221.39a53.52,53.52,0,0,0-7.43-2.67c.41,0,.81.06,1.22.12.91.12,1.81.26,2.71.45.06,0,.1-.09,0-.11a12.33,12.33,0,0,0-2.74-.61c-.46,0-.92-.07-1.38-.08l-.57,0a44.81,44.81,0,0,0-14.95-1.37c-.1,0-.09.14,0,.15a68.53,68.53,0,0,1,23.07,4.17S396.45,221.41,396.41,221.39Z" style="fill: rgb(38, 50, 56); transform-origin: 384.809px 219.214px;" id="eln1czuj5tz6m" class="animable"></path><path d="M369,217.73c1.2-.17,2.39-.31,3.57-.53a7.08,7.08,0,0,0,.85-.18.49.49,0,0,0,.16-.07s.05,0,0,0,0,0,0,0a.54.54,0,0,1,0-.08,3.48,3.48,0,0,0-.1-.41c-.16-.57-.35-1.14-.54-1.71L370.6,208l-2.24-6.86c-.72-2.29-1.44-4.58-2.09-6.91.94,2.22,1.8,4.47,2.64,6.73s1.61,4.53,2.4,6.8,1.5,4.57,2.14,6.9c.16.58.32,1.16.45,1.76,0,.15.06.3.08.46a.35.35,0,0,1,0,.15.28.28,0,0,1,0,.16c-.08.12-.07.07-.11.11a1.41,1.41,0,0,1-.27.09,4.9,4.9,0,0,1-.91.14C371.45,217.66,370.25,217.72,369,217.73Z" style="fill: rgb(38, 50, 56); transform-origin: 370.131px 205.98px;" id="elq2vjuckm9fn" class="animable"></path><path d="M366.11,197.27a7.57,7.57,0,0,1,2.22,3.13A6.51,6.51,0,0,1,367,199,6.83,6.83,0,0,1,366.11,197.27Z" style="fill: rgb(38, 50, 56); transform-origin: 367.22px 198.835px;" id="el81fhp2edf47" class="animable"></path><path d="M372.35,245.87c2.36-.66,4.74-1.2,7.12-1.75s4.77-1.05,7.17-1.53c-1.14.43-2.32.79-3.5,1.12s-2.37.63-3.56.9A68.31,68.31,0,0,1,372.35,245.87Z" style="fill: rgb(38, 50, 56); transform-origin: 379.495px 244.23px;" id="eld4y0hmn893w" class="animable"></path><path d="M348.47,178.65c3,1.75,9.15-2.29,11.62-6.24.16-.27.4-11.38.53-13.61,0-.46-14.24,2.59-14.24,2.59a35.91,35.91,0,0,1,.85,8.67,4.42,4.42,0,0,1-.15.92l0,.15C346.67,172.86,346.92,177.75,348.47,178.65Z" style="fill: rgb(173, 99, 89); transform-origin: 353.5px 168.911px;" id="el6sj9b4xm8qd" class="animable"></path><path d="M347.05,171.13a10.22,10.22,0,0,0,1.44.16c7.38.27,10.55-8.6,11.6-12.51-2.6.23-13.72,2.6-13.72,2.6a35.83,35.83,0,0,1,.86,8.69,4.32,4.32,0,0,1-.15.91S347.05,171.07,347.05,171.13Z" style="fill: rgb(38, 50, 56); transform-origin: 353.23px 165.038px;" id="elyy0s7aucwc" class="animable"></path><path d="M362.91,141.44c1.58,5-.88,19.42-4.39,22.67-5.08,4.73-13.5,5.27-17.53-.86-3.91-5.95-.37-24.72,3.56-27.68C350.33,131.19,360.57,134.1,362.91,141.44Z" style="fill: rgb(173, 99, 89); transform-origin: 351.345px 150.632px;" id="el3w43rv2m6hq" class="animable"></path><path d="M350.49,150.34s.07.06.06.1c-.19,1-.25,2.11.58,2.58,0,0,0,.06,0,0C350.06,152.75,350.15,151.23,350.49,150.34Z" style="fill: rgb(38, 50, 56); transform-origin: 350.695px 151.693px;" id="el477hmg54w3u" class="animable"></path><path d="M351.53,149.47c1.58.14,1.18,3.3-.28,3.17S350.2,149.35,351.53,149.47Z" style="fill: rgb(38, 50, 56); transform-origin: 351.436px 151.055px;" id="el4do63bw43di" class="animable"></path><path d="M344.62,149.39s-.08,0-.08.08c-.1,1-.37,2.09-1.29,2.3,0,0,0,.06,0,.06C344.35,151.81,344.69,150.34,344.62,149.39Z" style="fill: rgb(38, 50, 56); transform-origin: 343.939px 150.61px;" id="elw7l16f945ze" class="animable"></path><path d="M343.88,148.26c-1.56-.32-2.08,2.82-.64,3.12S345.18,148.52,343.88,148.26Z" style="fill: rgb(38, 50, 56); transform-origin: 343.512px 149.819px;" id="elc06g9kd6xdm" class="animable"></path><path d="M352.66,147.69c-.44-.07-.84-.21-1.27-.32a2.16,2.16,0,0,1-1.23-.57.69.69,0,0,1,0-.82,1.67,1.67,0,0,1,1.67-.33,2.42,2.42,0,0,1,1.5.93A.72.72,0,0,1,352.66,147.69Z" style="fill: rgb(38, 50, 56); transform-origin: 351.736px 146.624px;" id="elhc2xe9a95kb" class="animable"></path><path d="M342.79,146.36a11.39,11.39,0,0,0,1.31,0,2.12,2.12,0,0,0,1.34-.2.68.68,0,0,0,.2-.8,1.67,1.67,0,0,0-1.51-.78,2.41,2.41,0,0,0-1.7.47A.71.71,0,0,0,342.79,146.36Z" style="fill: rgb(38, 50, 56); transform-origin: 343.897px 145.48px;" id="eldv1aij3bz7m" class="animable"></path><path d="M349.81,159.34a1.52,1.52,0,0,1-.9.47,2.58,2.58,0,0,1-1-.38s-.06,0-.05,0a1.34,1.34,0,0,0,1.18.68,1,1,0,0,0,.88-.77S349.85,159.31,349.81,159.34Z" style="fill: rgb(38, 50, 56); transform-origin: 348.889px 159.718px;" id="elc34boq9uph" class="animable"></path><path d="M349.15,156.28a3.37,3.37,0,0,1-2.41,1.2,4.49,4.49,0,0,1-1.21-.09,1.55,1.55,0,0,1-.23-.06l-.21-.06a.23.23,0,0,1-.16-.24h0a.36.36,0,0,1,0-.1h0v-.08c.08-.76.29-1.9.29-1.9-.29.11-1.77.56-1.7.17a50.16,50.16,0,0,1,2.56-9.93c0-.1.2,0,.17.05-.45,3.13-1.46,6.17-2,9.31a5.58,5.58,0,0,1,1.63-.28c.11,0-.45,2.19-.46,2.53v0a4.7,4.7,0,0,0,3.59-.64C349.15,156.13,349.22,156.21,349.15,156.28Z" style="fill: rgb(38, 50, 56); transform-origin: 346.348px 151.318px;" id="elpx9z3xxqi3k" class="animable"></path><path d="M346,157.18a4,4,0,0,0,1.49,1.36,1.8,1.8,0,0,0,1.08.16c.8-.14.88-.86.79-1.49a4.49,4.49,0,0,0-.28-1A5.1,5.1,0,0,1,346,157.18Z" style="fill: rgb(38, 50, 56); transform-origin: 347.695px 157.467px;" id="elrgemm8y0s3" class="animable"></path><path d="M347.52,158.54a1.8,1.8,0,0,0,1.08.16c.8-.14.88-.86.79-1.49A1.86,1.86,0,0,0,347.52,158.54Z" style="fill: rgb(255, 153, 186); transform-origin: 348.47px 157.966px;" id="elrpt19r6514t" class="animable"></path><path d="M362.26,155.21c-3-.48-2.74-2.67-3-5.4s-.12-8.38-3.24-10.33-5.67.37-8.08,0c-1.59-.25-1.77-1.89-3.06-2.15s-3.23,3.34-3.23,3.34c.85-2.45,1.86-5.32,2.89-6.1,5.78-4.38,18-.47,20.36,6.88C365.8,144.26,363.41,150.08,362.26,155.21Z" style="fill: rgb(38, 50, 56); transform-origin: 353.374px 143.971px;" id="elwlvz29m8ig" class="animable"></path><path d="M359.75,153.46s3.3-4.63,5.41-3.45-.4,7.91-2.89,8.82a2.54,2.54,0,0,1-3.38-1.39Z" style="fill: rgb(173, 99, 89); transform-origin: 362.42px 154.43px;" id="elwve9ue11hs" class="animable"></path><path d="M364.39,151.92s.05.05,0,.07a6.4,6.4,0,0,0-3.33,4,1.4,1.4,0,0,1,2.09-.36s0,.1-.05.09a1.54,1.54,0,0,0-1.71.53,7.12,7.12,0,0,0-.83,1.38c-.08.15-.36.07-.3-.11v0C360.26,155.22,362,152.12,364.39,151.92Z" style="fill: rgb(38, 50, 56); transform-origin: 362.332px 154.814px;" id="elyiof96446of" class="animable"></path><path d="M347.2,169.72l2.52,8.16,10.65-9.18,2.51,3.43S352,187.22,352,186.5l-2.69-7.08-5.09,4.35,1.37-11.87Z" style="fill: rgb(255, 255, 255); transform-origin: 353.55px 177.612px;" id="el4yoh8c3yrv5" class="animable"></path><path d="M344.52,177.86c.3-2,.53-3.92.92-5.85,0-.07.12-.1.13,0,.24,1.92-.92,9.38-1.06,11.18l0,0c.21-.19,4.7-3.81,4.73-3.74.62,1.14,2.6,6.29,2.72,6.76,1.73-2.4,8.31-11.09,10.31-13.32.05-.07.15,0,.11.08-1.56,2.55-10.29,14.26-10.4,14.21a74.93,74.93,0,0,1-2.81-7.48c-.78.81-5.35,4.93-5.34,4.64A63.48,63.48,0,0,1,344.52,177.86Z" style="fill: rgb(38, 50, 56); transform-origin: 353.11px 179.563px;" id="elpip8d9wa2t" class="animable"></path></g><defs>     <filter id="active" height="200%">         <feMorphology in="SourceAlpha" result="DILATED" operator="dilate" radius="2"></feMorphology>                <feFlood flood-color="#32DFEC" flood-opacity="1" result="PINK"></feFlood>        <feComposite in="PINK" in2="DILATED" operator="in" result="OUTLINE"></feComposite>        <feMerge>            <feMergeNode in="OUTLINE"></feMergeNode>            <feMergeNode in="SourceGraphic"></feMergeNode>        </feMerge>    </filter>    <filter id="hover" height="200%">        <feMorphology in="SourceAlpha" result="DILATED" operator="dilate" radius="2"></feMorphology>                <feFlood flood-color="#ff0000" flood-opacity="0.5" result="PINK"></feFlood>        <feComposite in="PINK" in2="DILATED" operator="in" result="OUTLINE"></feComposite>        <feMerge>            <feMergeNode in="OUTLINE"></feMergeNode>            <feMergeNode in="SourceGraphic"></feMergeNode>        </feMerge>            <feColorMatrix type="matrix" values="0   0   0   0   0                0   1   0   0   0                0   0   0   0   0                0   0   0   1   0 "></feColorMatrix>    </filter></defs></svg>